Land_normalized_Motion_pl02
version=1
nRows=16
nColumns=43
inDegrees=yes
endheader
time		pelvis_tilt		pelvis_list		pelvis_rotation		pelvis_tx		pelvis_ty		pelvis_tz		hip_flexion_r		hip_adduction_r		hip_rotation_r		knee_angle_r		ankle_angle_r		subtalar_angle_r		mtp_angle_r		hip_flexion_l		hip_adduction_l		hip_rotation_l		knee_angle_l		ankle_angle_l		subtalar_angle_l		mtp_angle_l		lumbar_extension		lumbar_bending		lumbar_rotation		neck_flexion		neck_lateral_bending		neck_rotation		arm_flex_r		arm_add_r		arm_rot_r		elbow_flex_r		pro_sup_r		wrist_flex_r		wrist_dev_r		hand_finger_flex_r		arm_flex_l		arm_add_l		arm_rot_l		elbow_flex_l		pro_sup_l		wrist_flex_l		wrist_dev_l		hand_finger_flex_l		
1.182500		-1.882055		7.902564		94.829257		0.005892		0.563525		0.469550		70.378512		-2.942779		-2.202468		-117.156896		16.341994		-0.571450		27.340430		67.276632		4.341480		-1.661220		-111.687482		20.953596		-25.269651		12.152609		-61.212700		-1.798186		-2.234055		6.516710		3.655859		-7.469111		69.772703		-35.183555		27.288357		63.350266		97.500536		-27.702641		-3.789364		34.251963		61.204041		-32.861068		19.320214		73.350276		126.481606		-18.139979		13.539306		83.854585		
1.185227		-1.778403		7.442031		94.841948		0.006164		0.560738		0.469408		71.035656		-3.087633		-2.357709		-117.429880		16.713859		-0.066602		27.367540		68.046488		4.251453		-1.533133		-112.064317		21.229873		-24.682442		12.493503		-61.045950		-1.730495		-2.126705		6.703475		3.635291		-7.507542		72.050229		-34.944636		28.957012		63.388043		96.103845		-28.731623		-4.100373		33.642501		63.286492		-32.556461		20.615695		73.421301		125.747440		-18.051478		13.905353		83.169032		
1.187955		-1.785875		7.042011		94.784406		0.006657		0.558378		0.469235		71.597063		-3.164455		-2.423687		-117.658923		17.130322		-0.028980		27.425210		68.689956		4.151602		-1.535364		-112.371707		21.274662		-24.557972		12.565290		-61.034012		-1.799510		-2.131906		7.257398		3.527733		-7.502833		74.102126		-34.441483		29.694889		63.517905		96.082319		-28.588194		-4.199850		33.653824		65.259686		-32.324185		21.649680		73.662681		125.929967		-17.875446		13.790676		83.039616		
1.190682		-1.769604		6.640722		94.708716		0.006883		0.555940		0.469063		72.193223		-3.305848		-2.495079		-117.894376		17.438821		0.275131		27.493232		69.356110		3.983413		-1.614041		-112.696677		21.343974		-24.255820		12.690363		-60.961281		-1.842151		-2.050754		7.481911		3.495420		-7.511738		76.239438		-34.123133		30.803010		63.585166		95.943141		-28.580710		-4.311404		33.575544		67.274020		-32.163907		23.025950		73.925784		125.968815		-17.672350		13.754685		82.857107		
1.193409		-1.764329		6.260884		94.624360		0.007242		0.553645		0.468848		72.759241		-3.422893		-2.540952		-118.128790		17.753848		0.650702		27.577153		69.977219		3.797803		-1.683319		-113.006742		21.468467		-23.929889		12.838384		-60.907577		-1.917929		-1.993544		7.795129		3.462049		-7.537108		78.285556		-33.734787		31.831481		63.633145		95.716626		-28.698827		-4.430150		33.434751		69.256332		-31.924134		24.242275		74.086694		125.909423		-17.556662		13.779088		82.640120		
1.196136		-1.769083		5.909886		94.533854		0.007563		0.551461		0.468585		73.292586		-3.534787		-2.555315		-118.367933		18.052684		1.059607		27.668903		70.551978		3.605477		-1.769577		-113.306676		21.595856		-23.613355		12.989855		-60.873074		-1.998957		-1.944150		8.090128		3.441729		-7.571788		80.276243		-33.327161		32.803611		63.679738		95.515934		-28.804983		-4.532779		33.299695		71.186614		-31.674993		25.411532		74.236633		125.859935		-17.481776		13.807805		82.431926		
1.198864		-1.816525		5.614540		94.440972		0.007901		0.549450		0.468259		73.765071		-3.668231		-2.498252		-118.623529		18.373819		1.723063		27.811904		71.033762		3.400429		-1.901383		-113.589155		21.817901		-23.159292		13.287514		-60.885419		-2.120515		-1.917900		8.355207		3.460139		-7.626823		82.247845		-32.965518		33.949880		63.722963		94.973231		-29.250016		-4.675933		33.010388		73.129547		-31.398497		26.623378		74.315223		125.538774		-17.623721		14.030340		82.076327		
1.201591		-1.850147		5.304451		94.367861		0.008214		0.547478		0.467911		74.241580		-3.807161		-2.474200		-118.864413		18.673402		2.204667		27.932611		71.537685		3.212181		-2.011249		-113.864029		21.942683		-22.841617		13.529718		-60.879428		-2.213954		-1.905185		8.635836		3.455837		-7.681733		84.143635		-32.538930		34.904373		63.739880		94.652558		-29.444164		-4.775619		32.859155		75.001152		-31.141757		27.751333		74.439630		125.427651		-17.694771		14.142662		81.829196		
1.204318		-1.848594		4.970801		94.315083		0.008483		0.545505		0.467549		74.739398		-3.950789		-2.493351		-119.100851		18.921115		2.571801		28.014587		72.078777		3.029597		-2.088428		-114.139594		21.978333		-22.634866		13.657492		-60.832753		-2.262576		-1.886354		8.885658		3.448918		-7.721801		85.948055		-32.038596		35.617792		63.724631		94.763574		-29.269686		-4.799353		32.865650		76.803313		-30.888392		28.790156		74.570084		125.608588		-17.588884		14.080482		81.750664		
1.207045		-1.860112		4.655833		94.276271		0.008766		0.543607		0.467142		75.215023		-4.113558		-2.485088		-119.348721		19.185832		3.102851		28.109733		72.591117		2.846905		-2.163644		-114.411267		22.054854		-22.331244		13.822820		-60.791914		-2.316699		-1.881346		9.105456		3.469144		-7.767493		87.690898		-31.542944		36.322257		63.704406		94.886393		-29.154192		-4.820953		32.805708		78.593808		-30.616075		29.825205		74.652134		125.721966		-17.510313		14.063387		81.654811		
1.209773		-1.873773		4.349452		94.258596		0.009057		0.541783		0.466721		75.671900		-4.283341		-2.458115		-119.605299		19.459829		3.685934		28.207430		73.092670		2.667553		-2.230505		-114.670692		22.134055		-21.981755		14.013761		-60.751987		-2.360946		-1.889756		9.319285		3.502505		-7.810008		89.370827		-31.030656		36.965357		63.670406		95.007207		-29.052964		-4.847817		32.704558		80.351402		-30.334180		30.834810		74.716174		125.797692		-17.448899		14.071005		81.555250		
1.212500		-1.890178		4.047289		94.241356		0.009362		0.540033		0.466261		76.116712		-4.471919		-2.439183		-119.858418		19.733433		4.316938		28.306143		73.584233		2.491745		-2.286719		-114.935767		22.205731		-21.594838		14.240227		-60.706951		-2.411710		-1.910956		9.526308		3.545705		-7.838847		90.985132		-30.500141		37.557442		63.623747		95.118259		-28.950359		-4.891116		32.563630		82.079578		-30.057061		31.834048		74.761304		125.835779		-17.403719		14.102790		81.456381		
1.215227		-1.895819		3.751341		94.233361		0.009694		0.538315		0.465786		76.555490		-4.638220		-2.412029		-120.114825		19.994262		4.943458		28.400114		74.077275		2.313782		-2.319041		-115.201383		22.245356		-21.204421		14.486256		-60.654219		-2.450557		-1.932858		9.722238		3.593643		-7.847164		92.532205		-29.944085		38.078733		63.553156		95.224330		-28.826189		-4.953352		32.402190		83.768835		-29.778036		32.803056		74.790561		125.858742		-17.361326		14.134872		81.373663		
1.217955		-1.890168		3.465751		94.216415		0.010014		0.536689		0.465264		76.973662		-4.801835		-2.405635		-120.363774		20.225479		5.508409		28.483559		74.556896		2.125709		-2.350127		-115.468533		22.258251		-20.855020		14.719587		-60.600135		-2.486034		-1.942115		9.921154		3.641645		-7.834877		93.992497		-29.347678		38.480606		63.456999		95.320639		-28.706364		-5.024812		32.241408		85.373130		-29.454225		33.649636		74.787912		125.877917		-17.326038		14.152437		81.309041		
1.220682		-1.869749		3.198706		94.189373		0.010336		0.535182		0.464715		77.362681		-4.947277		-2.436666		-120.592959		20.398033		5.892032		28.543294		75.011357		1.931761		-2.374391		-115.729299		22.238219		-20.624464		14.853177		-60.553365		-2.516598		-1.932440		10.142585		3.675957		-7.810047		95.343213		-28.682115		38.691804		63.323636		95.415240		-28.611560		-5.073207		32.144923		86.838734		-29.017447		34.227257		74.722513		125.947075		-17.277112		14.120128		81.265827		
1.223409		-1.840702		2.894200		94.137040		0.010846		0.533498		0.464115		77.808655		-5.015656		-2.414002		-120.847516		20.606592		6.636750		28.644784		75.549507		1.731732		-2.314167		-116.044930		22.147675		-20.163340		15.126273		-60.447610		-2.582361		-1.934584		10.240153		3.729280		-7.759947		96.806147		-28.171342		39.297691		63.212836		95.602733		-28.403576		-5.231423		31.991637		88.552856		-28.893165		35.456511		74.723852		125.990572		-17.157001		14.075814		81.254337		
